# xmcd
#
# Track frame offsets:
#	150
#	996
#	16733
#	33939
#	45416
#	62213
#	78642
#	95470
#	110855
#	129338
#	144634
#	160464
#
# Disc length: 2534 seconds
#
# Revision: 1
# Processed by: cddbd v1.5.2PL0 Copyright (c) Steve Scherf et al.
# Submitted via: audiograbber 1.83.01
#
DISCID=9409e40c
DTITLE=Janine Knap and Little Critter - Spiritual People
DYEAR=1900
DGENRE=Blues
TTITLE0=Attitude
TTITLE1=Changes
TTITLE2=Victim Of Love
TTITLE3=Spiritual People
TTITLE4=Wairua
TTITLE5=The Lane
TTITLE6=U Rock Me
TTITLE7=He Dun Left Me
TTITLE8=All Alone
TTITLE9=River Run Dry
TTITLE10=Spiritual Peopple (Techno)
TTITLE11=Secret track
EXTD=
EXTT0=
EXTT1=
EXTT2=
EXTT3="For Iain"
EXTT4="For my family"
EXTT5=
EXTT6=
EXTT7=
EXTT8=
EXTT9=
EXTT10=
EXTT11=
PLAYORDER=
